<svg width="113" height="117" viewBox="0 0 113 117" fill="none" xmlns="http://www.w3.org/2000/svg">
<mask id="path-1-outside-1_126_10" maskUnits="userSpaceOnUse" x="0" y="-0.0871582" width="113" height="117" fill="black">
<rect fill="white" y="-0.0871582" width="113" height="117"/>
<path fill-rule="evenodd" clip-rule="evenodd" d="M93.699 1.33523C93.1417 1.89239 93.1373 2.24419 93.6308 6.87238C94.1128 11.3909 94.1527 15.9698 93.7294 18.1587C92.9078 22.4076 90.3687 27.2694 86.4197 32.1557C84.9599 33.9618 82.022 36.9628 81.7215 36.9544C81.6345 36.9521 81.1557 36.2017 80.6572 35.2869C79.4994 33.1622 78.0913 31.2315 77.1463 30.4733C76.2315 29.7395 74.7683 28.9918 73.9909 28.8611C73.4631 28.7723 73.3335 28.6094 72.6362 27.1574C70.872 23.4838 67.0235 20.843 62.9692 20.524C60.4694 20.3274 57.6564 21.2548 55.2612 23.0653C54.0595 23.9736 53.3238 24.8022 51.9547 26.7896L51.0713 28.0721L50.4204 27.0176C48.8658 24.4992 45.8703 21.9182 43.6408 21.1762C41.1881 20.36 38.3445 21.064 36.4168 22.9646C33.7214 25.6217 33.2284 29.8049 35.1518 33.697C37.304 38.0517 40.7542 41.4354 48.5512 46.8385C51.952 49.1951 54.598 51.9647 56.4718 55.129C56.8112 55.7023 57.1832 56.1712 57.2982 56.1712C57.4135 56.1712 58.1456 55.2127 58.9251 54.0415C60.4346 51.7733 62.7129 49.3354 65.523 46.9811C67.0273 45.7209 68.9181 43.8377 70.6523 41.8726C71.1263 41.3354 71.5614 40.9432 71.6193 41.0008C71.8853 41.2671 71.8817 44.2676 71.6129 46.1633C71.4534 47.2883 71.3229 48.7001 71.3229 49.3006C71.3229 51.873 72.0695 54.6367 73.3437 56.7814C74.7248 59.1065 77.988 62.1261 80.7698 63.654C81.7386 64.186 81.8312 64.2902 81.8332 64.8497C81.8344 65.1868 81.9988 65.7271 82.1986 66.0505L82.562 66.6383L81.6095 67.3634C80.0704 68.5356 77.5688 70.1529 74.9479 71.6705C67.4658 76.003 64.4056 77.9368 61.0824 80.4318C57.1391 83.3925 52.0933 87.6276 48.9969 90.5756L47.6034 91.9022L44.6208 89.5782C40.8352 86.6286 38.4404 84.536 36.9949 82.9148C35.7633 81.5333 34.5294 79.8819 34.5294 79.6148C34.5294 79.5234 35.0799 79.1774 35.7528 78.8456C39.0856 77.2022 40.9427 75.5466 42.1007 73.1864C43.2712 70.8008 43.4902 69.7507 43.4949 66.5023C43.4985 63.8677 43.4624 63.569 42.9163 61.6992C42.1386 59.0371 42.0233 57.8988 42.4485 57.0836C42.9006 56.217 43.6852 55.8166 45.1577 55.7015C47.7613 55.4978 47.8639 55.214 45.868 53.7379C45.1261 53.1892 44.1892 52.2939 43.7861 51.7481C42.8353 50.4611 42.1143 49.9302 40.803 49.5516C38.8603 48.9906 37.0444 49.505 35.3671 51.0913C34.2066 52.1888 33.5942 53.3676 32.4594 56.6877C32.0044 58.0186 31.4074 59.5214 31.1324 60.0274L30.6326 60.9474L30.5084 59.7037C30.1318 55.9335 28.2185 53.8001 18.3983 46.1994C14.8541 43.4564 13.7483 42.4667 9.95279 38.6415C5.42012 34.0735 5.04022 33.7913 4.42416 34.5335C3.81969 35.2619 4.41111 39.099 5.44133 41.1322C5.68928 41.6214 5.89209 42.0593 5.89209 42.1052C5.89209 42.151 5.42973 41.9101 4.86477 41.5699C3.56286 40.786 2.77842 40.6258 2.17577 41.0207C1.50714 41.4588 1.54901 42.6529 2.28144 44.0269C3.1217 45.6033 5.01884 47.8687 6.15309 48.6499C6.70735 49.0316 7.16083 49.3674 7.16083 49.3961C7.16083 49.4249 6.65098 49.2505 6.02803 49.0086C3.37672 47.9794 1.90607 47.5935 1.44135 47.8052C1.15969 47.9338 0.998918 48.1571 1.00001 48.419C1.00508 49.6476 3.548 52.5764 5.99849 54.1761C6.76299 54.6753 7.33483 55.0837 7.26904 55.0837C7.20325 55.0837 6.32564 54.839 5.31898 54.5399C3.1295 53.8894 2.18284 53.8388 1.90552 54.357C1.62803 54.8756 2.0295 55.5515 3.31546 56.731C5.40254 58.6452 7.49415 59.5897 10.0026 59.7506C13.0819 59.948 14.8273 58.8417 13.6994 57.4078C13.3483 56.9614 13.083 56.8184 8.61083 54.6642C5.38315 53.1095 3.39503 51.4527 2.07735 49.2194L1.68748 48.5587H2.14604C2.39834 48.5587 3.56957 48.9197 4.74914 49.3609C7.5768 50.4187 8.39985 50.6113 9.69234 50.5178C12.5091 50.3141 12.116 48.473 8.39713 44.4521C7.20923 43.1678 5.73441 40.3095 5.27295 38.3972C4.95975 37.0992 4.88544 34.965 5.1535 34.965C5.24576 34.965 6.61183 36.315 8.18942 37.9649C11.8546 41.7983 13.9194 43.6668 17.8545 46.712C26.9211 53.7279 28.9176 55.8068 29.6391 58.9834C29.758 59.507 29.7941 60.3647 29.725 61.0237L29.606 62.1607L28.3068 63.1898C27.5923 63.7561 26.6933 64.5494 26.3092 64.953C25.5242 65.7777 23.6585 68.5124 23.0085 69.7907C22.648 70.4998 22.4459 70.6783 21.7264 70.9234C20.1417 71.4633 17.8297 71.6523 15.8073 71.4073C13.2463 71.0968 12.2257 70.4893 11.3727 68.7679C10.6252 67.259 10.6332 67.2273 11.764 67.2273C13.3365 67.2273 16.272 66.5837 17.6256 65.9421C19.4285 65.0875 21.1411 63.2864 22.2663 61.0614C23.1368 59.3399 23.4324 58.0743 22.9639 58.0743C22.8332 58.0743 22.4883 58.6668 22.1974 59.391C20.9026 62.6136 18.9346 64.7457 16.4468 65.6207C15.2019 66.0585 12.677 66.5007 11.4162 66.5016L10.5058 66.5023L9.35793 65.1268C8.21679 63.7593 6.84383 62.6961 6.21907 62.6961C5.76993 62.6961 5.1671 63.337 5.1671 63.8146C5.1671 64.4515 6.57341 65.6207 8.29092 66.4117C9.6811 67.0519 9.89008 67.211 10.0782 67.7711C10.674 69.5459 11.857 71.0662 13.0514 71.5922C14.7548 72.342 18.8182 72.489 21.0829 71.8823L22.0457 71.6246L21.6191 72.0993C16.1506 78.1826 11.3087 83.0139 8.06708 85.6214C4.15537 88.768 3.12207 90.0708 3.09542 91.8899C3.07259 93.4468 4.31269 94.1952 5.99649 93.6409C6.75248 93.3919 6.81048 93.394 6.69466 93.6656C6.21508 94.7893 6.05214 95.4982 6.13279 96.109C6.34612 97.725 7.77327 98.1591 9.43623 97.1136C11.4147 95.8699 13.7556 93.025 16.7282 88.2522C16.9456 87.9033 17.1248 87.6704 17.1264 87.7347C17.1313 87.9221 16.112 90.2775 14.5886 93.599C13.183 96.6636 12.5983 98.3903 12.5983 99.4762C12.5983 100.948 13.6523 102.025 15.0945 102.026C15.7528 102.027 15.9929 101.913 16.6951 101.265C17.7641 100.28 18.9882 97.7641 20.1165 94.2334C22.1059 88.008 22.9588 86.1568 24.7251 84.2299C25.8311 83.0233 27.9046 81.7655 30.516 80.717C33.4914 79.5223 33.4631 79.5234 34.1758 80.5761C36.4365 83.9154 39.1054 86.3649 47.0223 92.366C47.0649 92.3983 46.8725 92.662 46.5948 92.9518C45.765 93.8178 46.3592 94.2396 47.2315 93.4036L47.7191 92.9366L50.2321 94.7918C51.6141 95.8123 53.6829 97.3387 54.8293 98.1841C60.1259 102.089 63.1526 106.454 63.1629 110.202C63.1671 111.711 62.9697 112.465 62.306 113.476C60.8069 115.759 57.614 115.828 56.4991 113.601C56.1415 112.886 56.1091 112.663 56.263 111.976C56.5856 110.536 58.0426 109.804 59.2191 110.491C60.2533 111.095 60.3438 112.053 59.4243 112.663C59.1022 112.877 58.9936 112.86 58.5751 112.531C58.0841 112.145 57.7293 112.185 57.7293 112.628C57.7293 112.994 58.617 113.627 59.1312 113.627C59.3977 113.627 59.8267 113.378 60.1942 113.011C61.8001 111.405 60.0915 109.077 57.6439 109.536C56.7701 109.7 55.8189 110.651 55.5575 111.621C55.1358 113.188 55.7555 114.588 57.2502 115.445C58.9741 116.434 60.8676 116.089 62.3877 114.509C64.4569 112.359 64.5422 109.17 62.6286 105.509C61.0833 102.554 58.9942 100.329 54.956 97.3395C53.6401 96.3653 51.5882 94.848 50.3961 93.9675L48.2284 92.3665L49.8101 90.8578C51.6328 89.1193 55.3732 85.8912 58.0011 83.7889C63.0988 79.7108 65.7733 77.9096 73.0314 73.666C79.5159 69.8745 81.2535 68.7224 83.7613 66.5522L84.8716 65.5914L86.782 66.3918C91.0118 68.1638 93.5429 70.1501 95.6135 73.3218C96.8538 75.2219 97.2314 76.5477 97.4209 79.6708C97.5763 82.2282 97.764 82.9617 98.4696 83.7663C98.9654 84.3318 100.395 84.0539 101.05 83.265C101.27 83.0007 101.354 83.1129 101.788 84.2435C102.705 86.6293 103.393 87.3459 104.768 87.3459C105.564 87.3459 106.43 86.5771 106.602 85.7194C106.664 85.41 106.765 85.1826 106.826 85.2139C108.377 86.006 108.275 85.9833 109.067 85.7066C110.029 85.3702 110.449 84.6646 110.591 83.1457L110.699 81.9866L111.302 82.0569C111.826 82.118 111.954 82.0473 112.276 81.5195C113.887 78.8762 110.397 71.5519 104.854 65.9441C101.974 63.0305 99.4995 61.1956 93.8884 57.8129C90.1017 55.5301 88.1597 54.1504 87.2705 53.1113C86.6346 52.3684 86.1853 52.2397 86.1853 52.8005C86.1853 53.1296 87.7229 54.6905 88.9041 55.5603C89.4523 55.9642 91.369 57.1783 93.1634 58.2584C101.731 63.4158 105.054 66.3628 108.866 72.1839C110.934 75.3426 112.073 78.399 111.869 80.2477C111.683 81.9371 111.074 81.5873 110.189 79.2818C108.222 74.1579 105.877 70.7867 102.528 68.2659C98.6906 65.3771 94.3763 63.7591 89.0853 63.2241C87.9389 63.1081 86.9788 62.9944 86.9518 62.9716C86.9246 62.9488 87.1075 62.49 87.3578 61.9521C87.6971 61.2233 87.8135 60.6717 87.8147 59.7863C87.8176 57.8903 87.3125 57.0875 84.1682 53.9922C82.1219 51.9778 81.386 51.127 81.0322 50.3672C80.4548 49.1266 80.4276 47.8565 80.9483 46.4646C81.2874 45.5585 82.4559 43.8778 83.273 43.1212C83.4345 42.9717 84.4618 42.041 85.5557 41.0532C90.6486 36.454 91.9811 34.2734 93.5099 28.0383C94.2282 25.1087 94.499 22.8225 94.7178 17.837C94.9313 12.975 94.9021 12.1469 94.3053 6.11204C93.8975 1.987 93.9393 1.48675 94.6719 1.74322C96.1767 2.27011 97.9632 5.60763 98.5284 8.94714C98.9721 11.5705 98.4363 16.0718 97.2333 19.8277C96.9388 20.7472 96.6978 21.5523 96.6978 21.6166C96.6978 21.6811 96.8571 21.7339 97.0517 21.7339C97.7443 21.7339 99.1375 16.4456 99.4152 12.7621C99.531 11.2262 99.7143 10.3331 100.213 8.87337C101.201 5.98136 101.804 5.68865 102.751 7.6407C103.536 9.2578 103.811 10.8611 103.724 13.3058C103.63 15.9394 103.141 17.5465 101.235 21.4986C100.239 23.562 100.04 24.1117 100.231 24.2701C100.412 24.4209 100.561 24.3381 100.859 23.9196C101.392 23.1705 103.256 19.0296 103.759 17.4745C104.55 15.0322 106.089 12.8527 107.022 12.8527C107.211 12.8527 107.543 13.0769 107.761 13.3511C108.122 13.8061 108.148 13.9998 108.067 15.5714C107.998 16.8947 107.841 17.6708 107.391 18.9245C106.164 22.3449 105.061 24.029 102.127 26.9631C101.135 27.9554 100.323 28.8481 100.323 28.9467C100.323 29.8729 102.697 27.7635 105.593 24.2636C108.689 20.524 110.473 19.6707 110.473 21.93C110.473 22.6071 110.295 23.1511 109.693 24.3214C108.301 27.0267 106.326 29.1986 103.359 31.2877C102.059 32.2023 101.723 32.6257 102.105 32.8624C102.396 33.0418 104.414 31.9206 106.304 30.5302C109.199 28.4 110.367 27.7999 110.674 28.2848C111.273 29.2296 110.381 30.8733 108.071 33.0808C106.087 34.9777 104.216 36.0507 101.189 37.0278C99.9218 37.4369 99.3072 37.7249 99.2673 37.9283C99.2273 38.1325 99.3337 38.2275 99.6023 38.2275C100.377 38.2275 103.963 36.9035 105.347 36.1062C107.061 35.1191 107.947 34.7838 108.842 34.7838C110.373 34.7838 110.209 35.8136 108.394 37.61C106.636 39.3487 104.307 40.3929 99.9149 41.4117C98.7977 41.6709 98.5102 41.805 98.5102 42.0669C98.5102 42.7154 100.124 42.5702 104.113 41.5623C108.427 40.4725 109.266 40.5152 108.598 41.7909C107.98 42.9713 105.858 44.4581 103.88 45.0961C102.282 45.6116 101.001 45.8374 98.2824 46.0832C96.3811 46.2548 95.8821 46.3558 95.8821 46.5684C95.8821 46.9463 98.8979 46.8988 101.441 46.4807C102.595 46.2909 103.973 46.19 104.857 46.23C106.134 46.288 106.386 46.3544 106.673 46.7089C106.945 47.0456 106.972 47.2185 106.818 47.6599C106.397 48.8679 103.829 50.4874 101.616 50.941C100.479 51.1739 100.035 51.5314 100.514 51.8275C100.649 51.9105 100.83 51.9345 100.917 51.8806C101.172 51.7231 102.972 52.0024 103.314 52.2526C103.602 52.4632 103.605 52.5261 103.347 53.0243C102.534 54.5965 98.7301 55.9814 95.7915 55.7753C95.0776 55.7251 94.9759 55.7633 94.9759 56.0805C94.9759 56.4238 95.0868 56.4414 97.0749 56.4131C98.9262 56.3867 99.3366 56.32 100.553 55.8478C102.236 55.1942 103.627 54.2035 104.018 53.3794C104.414 52.5445 104.387 52.244 103.869 51.7264L103.429 51.2856L104.542 50.6924C106.063 49.882 107.509 48.448 107.67 47.5901C107.867 46.5405 107.201 45.7684 105.851 45.4795L105.307 45.3631L105.941 45.0367C107.916 44.0208 109.566 42.2714 109.566 41.1951C109.566 40.3021 108.972 39.9778 107.507 40.0712L106.354 40.1446L107.144 39.6438C109.032 38.4461 110.654 36.4921 110.654 35.4144C110.654 34.5857 110.017 34.0588 109.016 34.0588H108.218L109.318 32.926C111.238 30.9491 111.887 29.616 111.54 28.362C111.228 27.2293 110.501 27.0896 108.963 27.8655L107.946 28.3785L108.574 27.5483C109.65 26.1239 110.794 24.0448 111.113 22.9305C111.363 22.0592 111.382 21.7335 111.213 21.1698C110.8 19.7916 109.758 19.5727 108.296 20.5568C107.636 21.0013 107.392 21.0966 107.487 20.874C108.019 19.6196 108.675 17.4531 108.842 16.3945C109.242 13.8659 108.481 12.1277 106.973 12.1277C106.365 12.1277 106.132 12.2515 105.441 12.9433C104.992 13.3919 104.615 13.7582 104.603 13.7573C104.592 13.7564 104.559 13.0637 104.53 12.2178C104.441 9.63262 103.6 7.00959 102.546 6.03302C101.495 5.05844 100.488 5.73704 99.7661 7.90677L99.3574 9.13545L99.1196 7.95806C98.4916 4.84693 96.7061 1.80285 95.1176 1.13531C94.3296 0.804172 94.2136 0.820484 93.699 1.33523ZM60.1881 21.4805C58.7319 21.8327 56.7726 22.8101 55.5003 23.8193C54.5036 24.6099 52.5943 26.9731 51.7758 28.4296L51.3988 29.1004L52.2996 30.3359C54.6223 33.5219 55.9672 36.9408 55.439 38.3172C55.2655 38.7687 54.5877 38.9567 53.8583 38.7553C51.9336 38.2239 50.4014 34.4218 50.5001 30.4231C50.5429 28.6922 50.5395 28.6772 49.8409 27.5193C49.4547 26.8793 48.4004 25.6153 47.4981 24.7102C46.2044 23.4126 45.5526 22.9145 44.4158 22.3539C43.1003 21.7056 42.8462 21.6433 41.5158 21.6433C40.2525 21.6433 39.8946 21.7205 38.8386 22.2207C35.6245 23.7432 34.0386 27.3917 34.9896 31.0754C36.2018 35.7716 40.5721 40.4784 49.1199 46.2936C51.424 47.8613 54.9242 51.3438 56.2697 53.4071C56.8058 54.2296 57.2953 54.9024 57.3572 54.9024C57.4191 54.9024 57.6241 54.6374 57.8128 54.3134C59.1676 51.9868 61.4032 49.4909 64.3519 47.0128C66.3107 45.3667 68.7231 42.9597 70.4841 40.8942L71.3671 39.8586L70.756 38.8389C70.4172 38.2736 69.8267 37.6071 69.4309 37.3436C68.7802 36.9102 68.5576 36.8682 66.9142 36.8682C64.4773 36.8682 64.3479 36.6778 65.753 35.1602C67.2919 33.4978 67.6465 32.9593 67.7906 32.0651C68.0909 30.2027 69.1119 29.2755 71.3758 28.8087C72.3301 28.6121 72.4149 28.5566 72.3069 28.199C71.9937 27.1617 71.1168 25.8691 69.8766 24.6168C68.8206 23.5504 68.1665 23.0699 66.9729 22.4839C64.5025 21.2708 62.3631 20.9545 60.1881 21.4805ZM93.444 21.9575C93.0345 23.324 91.3442 26.4743 89.6736 28.9838C87.7225 31.915 85.6644 34.4023 83.5634 36.3679L82.0148 37.817L82.4688 39.0232C83.0026 40.4415 83.01 40.5116 82.6403 40.6534C82.4298 40.7342 82.2586 40.5194 81.9695 39.8118C81.756 39.2895 81.112 37.9239 80.5385 36.7775C77.949 31.6016 75.9484 29.7279 72.832 29.5595C70.7067 29.4447 69.0928 30.2083 68.6856 31.5213C68.6084 31.7705 68.5603 32.8105 68.579 33.8322C68.6053 35.2701 68.5587 35.69 68.3729 35.69C68.241 35.69 68.0537 35.6108 67.9569 35.514C67.8433 35.4004 67.5901 35.464 67.241 35.6942L66.7011 36.0502L67.5678 36.0513C68.0445 36.052 68.7378 36.1789 69.1084 36.3333C70.6097 36.9586 71.9698 38.9145 72.4236 41.1001C72.6546 42.2132 72.5706 45.0309 72.2295 47.6064C71.6671 51.8525 72.9552 55.7173 75.9984 58.9153C77.6722 60.6741 79.2893 61.943 81.1698 62.9732C82.3231 63.6049 82.4545 63.6372 83.0952 63.4452C83.4735 63.3319 84.2824 63.1869 84.8928 63.1231L86.0026 63.0071L86.4887 62.0135C87.1991 60.5617 87.25 59.3591 86.6562 58.0621C86.2758 57.2311 85.6479 56.5005 83.5652 54.4656C81.3378 52.2892 80.8664 51.7293 80.3739 50.6766C79.8427 49.5402 79.8034 49.3299 79.8831 48.0485C80.045 45.4492 80.7267 44.5333 86.6549 38.9525C90.2707 35.5487 91.6444 32.9396 92.953 26.9901C93.4269 24.8343 93.9085 21.4216 93.7595 21.2726C93.7128 21.226 93.5708 21.5341 93.444 21.9575ZM51.2043 31.0522C51.2043 34.2388 52.8932 38.0463 54.3066 38.0463C54.76 38.0463 54.8293 37.9781 54.8293 37.531C54.8293 36.8633 54.3078 35.3591 53.5625 33.8768C52.9253 32.6093 51.453 30.2526 51.2985 30.2526C51.2467 30.2526 51.2043 30.6124 51.2043 31.0522ZM69.7774 31.708C69.3 32.2354 69.5947 33.0395 70.2951 33.1203C70.9419 33.195 71.3229 32.8763 71.3229 32.2604C71.3229 31.3383 70.408 31.0113 69.7774 31.708ZM67.4089 34.4666L67.0636 34.8744L67.4714 34.5291C67.6958 34.3392 67.8792 34.1558 67.8792 34.1213C67.8792 33.9763 67.7333 34.0834 67.4089 34.4666ZM2.51506 41.7588C2.17577 42.6433 3.5094 45.0093 5.49316 47.0424C7.37489 48.9707 10.591 50.2835 10.7479 49.1873C10.8221 48.6702 9.59972 46.8515 8.1336 45.2973C5.748 42.7683 2.83225 40.9321 2.51506 41.7588ZM37.2958 50.5805C35.5674 51.4188 34.4986 53.0288 33.3437 56.5336C32.4247 59.3225 32.0097 60.217 30.9999 61.5852C30.5312 62.2203 30.0294 63.076 29.8844 63.4869C29.4751 64.6467 28.6066 66.0938 27.3514 67.7062C26.1447 69.2566 25.4043 69.9279 23.9552 70.786C23.0933 71.2964 23.0484 71.369 21.3979 74.9304C20.4741 76.9241 19.369 79.1671 18.9424 79.9147C16.6053 84.0101 13.1817 88.1663 9.45671 91.4297C7.97754 92.7256 7.3526 93.6735 6.96654 95.2072C6.78728 95.919 6.80015 96.1124 7.05299 96.4983C7.21666 96.7479 7.515 96.9521 7.716 96.9521C8.9813 96.9521 12.0098 94.1192 13.9896 91.084C17.9772 84.9701 17.9609 84.9913 18.4345 85.2841C18.8488 85.54 18.194 87.4281 15.8958 92.6045C14.451 95.8587 14.2373 97.3775 15.155 97.8687C15.9742 98.3072 16.7855 96.9578 18.2119 92.7834C19.9978 87.5573 23.1767 82.8492 25.2725 82.3268C25.529 82.2628 26.5545 81.7825 27.5513 81.2594C28.5482 80.7363 30.2052 79.9996 31.2334 79.6222C32.6789 79.0919 33.081 78.8726 33.0069 78.6552C32.9544 78.5006 32.6903 77.7624 32.4204 77.0148C31.7699 75.2124 31.6082 71.6891 32.0715 69.4034C33 64.8202 35.9118 60.7024 38.224 60.7024C40.202 60.7024 41.6231 63.1728 41.6128 66.593C41.6072 68.4642 41.2996 69.6836 40.4015 71.3961C39.6064 72.9122 37.7982 75.3484 36.2487 76.9908C35.5779 77.7019 35.075 78.2835 35.1306 78.2835C35.5315 78.2835 38.03 76.7298 39.2727 75.7078C41.4629 73.9063 42.8669 70.21 42.8669 66.2453C42.8669 64.8878 42.7451 64.1267 42.224 62.2285C41.0078 57.7991 41.0569 57.369 43.0566 54.9477C43.1594 54.8232 43.4648 54.7145 43.7349 54.7063L44.2262 54.6916L43.6372 54.4341C42.515 53.9432 43.0753 53.3774 44.2436 53.8214C44.714 54.0003 44.7036 53.971 44.0288 53.2099C43.639 52.7702 43.0421 52.0642 42.7026 51.641C42.363 51.218 41.7513 50.7203 41.3433 50.5349C40.3011 50.0616 38.3195 50.0839 37.2958 50.5805ZM40.432 52.4244C39.7787 52.902 40.1907 54.1774 40.9984 54.1774C41.3215 54.1774 41.9606 53.5153 41.9606 53.1805C41.9606 52.8458 41.3215 52.1837 40.9984 52.1837C40.8679 52.1837 40.613 52.2921 40.432 52.4244ZM2.79074 55.046C3.34047 56.0733 5.91711 57.9407 7.64151 58.5615C9.09712 59.0854 12.1015 59.1377 12.8437 58.6517C13.1199 58.471 13.3148 58.2263 13.2769 58.108C13.1308 57.6525 11.2949 56.7461 10.0974 56.5382C9.42935 56.422 7.58115 55.9658 5.99015 55.5241C2.68852 54.6075 2.54461 54.5859 2.79074 55.046ZM37.1463 61.7672C35.7019 62.6479 33.9973 65.4141 33.1619 68.2331C32.5061 70.4456 32.3573 73.4739 32.8048 75.4941C33.1434 77.0222 33.5858 78.2835 33.7834 78.2835C33.8497 78.2835 34.4797 77.6923 35.1835 76.9695C38.9506 73.1002 40.6562 70.1541 40.8283 67.2194C41.066 63.1666 39.2531 60.4823 37.1463 61.7672ZM5.97365 63.617C5.78787 63.9175 6.7175 64.7776 7.92262 65.4197C8.79081 65.8826 8.97042 65.9307 8.82325 65.661C8.48649 65.0438 6.60404 63.4211 6.22505 63.4211C6.15327 63.4211 6.04017 63.5094 5.97365 63.617ZM28.0429 64.3727C26.7924 65.371 25.01 67.6431 24.1228 69.3693L23.8138 69.9705L24.2325 69.7478C25.308 69.1758 28.2966 65.4692 28.786 64.1008C28.9379 63.6758 28.8967 63.6908 28.0429 64.3727ZM84.4181 63.9163C83.5402 63.9953 83.4416 64.1753 84.1095 64.4794C84.7004 64.7487 84.6451 64.764 84.9905 64.2367C85.1538 63.9875 85.2651 63.7979 85.2379 63.8153C85.2108 63.8327 84.8417 63.8782 84.4181 63.9163ZM85.8469 64.3384C85.6109 64.6413 85.4518 64.9231 85.4935 64.9646C85.535 65.0061 86.0135 65.2367 86.5569 65.4768C87.2108 65.7659 88.2186 65.9874 89.5384 66.1322C93.9507 66.6162 96.1464 67.6674 99.5591 70.9301C102.733 73.964 104.824 77.3276 106.218 81.6381C107.104 84.3787 107.439 84.8819 108.43 84.9544C109.122 85.0051 109.21 84.9602 109.502 84.4106C109.908 83.6427 109.896 81.5367 109.475 79.9089C109.1 78.4566 107.475 75.0031 106.465 73.5098C105.294 71.7798 103.901 70.2685 102.457 69.1629C98.1166 65.8388 93.9393 64.3522 87.6353 63.888C86.2875 63.7887 86.2723 63.7925 85.8469 64.3384ZM82.5603 64.8626C82.5603 65.2189 82.9892 65.9586 83.1958 65.9586C83.3138 65.9586 83.5572 65.7962 83.7368 65.5979C84.0555 65.2459 84.0475 65.2307 83.4082 64.9635C82.6395 64.6424 82.5603 64.6329 82.5603 64.8626ZM90.0998 67.0745C90.1518 67.1586 90.3178 67.2273 90.469 67.2273C90.8795 67.2273 93.161 68.7505 94.704 70.0546C97.9505 72.7987 99.6507 75.5907 101.591 81.3647C103.041 85.6808 103.594 86.621 104.68 86.621C105.996 86.621 106.35 84.4844 105.479 81.7957C104.839 79.8194 103.211 76.4828 102.185 75.044C101.13 73.5631 98.7923 71.1077 97.335 69.949C96.0509 68.9278 94.2514 67.9253 92.9822 67.5242C91.8396 67.1632 89.9747 66.8723 90.0998 67.0745ZM96.6929 73.5866C97.7408 75.5624 97.9585 76.4253 98.1414 79.3313C98.2592 81.2014 98.3959 82.1068 98.6339 82.5938C99.0917 83.5303 99.6253 83.5722 100.416 82.7333L101.032 82.0803L100.39 80.2272C99.5129 77.6961 98.4943 75.566 97.5239 74.2337C96.123 72.3103 95.9403 72.168 96.6929 73.5866ZM18.7512 76.3351C14.7662 80.6243 10.8509 84.4046 8.24833 86.4761C5.36865 88.7682 4.50971 89.7004 4.06384 91.0175C3.50033 92.6823 4.04172 93.3237 5.65647 92.9039C6.71406 92.6292 7.48273 92.119 9.54371 90.3233C12.0495 88.1402 14.89 84.8331 16.9635 81.6846C18.202 79.804 21.1348 74.1148 20.8656 74.1148C20.8373 74.1148 19.8858 75.1138 18.7512 76.3351ZM22.0566 86.3944C21.1697 87.6434 19.7979 90.5689 18.9331 93.0553C18.4129 94.5506 17.7579 96.232 17.4775 96.7921C16.9591 97.8267 16.0502 98.7646 15.5661 98.7646C15.0606 98.7646 14.2997 98.247 14.0537 97.736L13.8074 97.224L13.5542 98.3115C13.2421 99.6524 13.374 100.448 13.9888 100.932C15.1403 101.838 16.4411 100.98 17.6653 98.5087C18.0769 97.6779 19.0624 95.0207 19.855 92.604C20.6477 90.1874 21.5728 87.6894 21.9107 87.053C22.5728 85.8061 22.6176 85.6041 22.0566 86.3944Z"/>
</mask>
<path fill-rule="evenodd" clip-rule="evenodd" d="M93.699 1.33523C93.1417 1.89239 93.1373 2.24419 93.6308 6.87238C94.1128 11.3909 94.1527 15.9698 93.7294 18.1587C92.9078 22.4076 90.3687 27.2694 86.4197 32.1557C84.9599 33.9618 82.022 36.9628 81.7215 36.9544C81.6345 36.9521 81.1557 36.2017 80.6572 35.2869C79.4994 33.1622 78.0913 31.2315 77.1463 30.4733C76.2315 29.7395 74.7683 28.9918 73.9909 28.8611C73.4631 28.7723 73.3335 28.6094 72.6362 27.1574C70.872 23.4838 67.0235 20.843 62.9692 20.524C60.4694 20.3274 57.6564 21.2548 55.2612 23.0653C54.0595 23.9736 53.3238 24.8022 51.9547 26.7896L51.0713 28.0721L50.4204 27.0176C48.8658 24.4992 45.8703 21.9182 43.6408 21.1762C41.1881 20.36 38.3445 21.064 36.4168 22.9646C33.7214 25.6217 33.2284 29.8049 35.1518 33.697C37.304 38.0517 40.7542 41.4354 48.5512 46.8385C51.952 49.1951 54.598 51.9647 56.4718 55.129C56.8112 55.7023 57.1832 56.1712 57.2982 56.1712C57.4135 56.1712 58.1456 55.2127 58.9251 54.0415C60.4346 51.7733 62.7129 49.3354 65.523 46.9811C67.0273 45.7209 68.9181 43.8377 70.6523 41.8726C71.1263 41.3354 71.5614 40.9432 71.6193 41.0008C71.8853 41.2671 71.8817 44.2676 71.6129 46.1633C71.4534 47.2883 71.3229 48.7001 71.3229 49.3006C71.3229 51.873 72.0695 54.6367 73.3437 56.7814C74.7248 59.1065 77.988 62.1261 80.7698 63.654C81.7386 64.186 81.8312 64.2902 81.8332 64.8497C81.8344 65.1868 81.9988 65.7271 82.1986 66.0505L82.562 66.6383L81.6095 67.3634C80.0704 68.5356 77.5688 70.1529 74.9479 71.6705C67.4658 76.003 64.4056 77.9368 61.0824 80.4318C57.1391 83.3925 52.0933 87.6276 48.9969 90.5756L47.6034 91.9022L44.6208 89.5782C40.8352 86.6286 38.4404 84.536 36.9949 82.9148C35.7633 81.5333 34.5294 79.8819 34.5294 79.6148C34.5294 79.5234 35.0799 79.1774 35.7528 78.8456C39.0856 77.2022 40.9427 75.5466 42.1007 73.1864C43.2712 70.8008 43.4902 69.7507 43.4949 66.5023C43.4985 63.8677 43.4624 63.569 42.9163 61.6992C42.1386 59.0371 42.0233 57.8988 42.4485 57.0836C42.9006 56.217 43.6852 55.8166 45.1577 55.7015C47.7613 55.4978 47.8639 55.214 45.868 53.7379C45.1261 53.1892 44.1892 52.2939 43.7861 51.7481C42.8353 50.4611 42.1143 49.9302 40.803 49.5516C38.8603 48.9906 37.0444 49.505 35.3671 51.0913C34.2066 52.1888 33.5942 53.3676 32.4594 56.6877C32.0044 58.0186 31.4074 59.5214 31.1324 60.0274L30.6326 60.9474L30.5084 59.7037C30.1318 55.9335 28.2185 53.8001 18.3983 46.1994C14.8541 43.4564 13.7483 42.4667 9.95279 38.6415C5.42012 34.0735 5.04022 33.7913 4.42416 34.5335C3.81969 35.2619 4.41111 39.099 5.44133 41.1322C5.68928 41.6214 5.89209 42.0593 5.89209 42.1052C5.89209 42.151 5.42973 41.9101 4.86477 41.5699C3.56286 40.786 2.77842 40.6258 2.17577 41.0207C1.50714 41.4588 1.54901 42.6529 2.28144 44.0269C3.1217 45.6033 5.01884 47.8687 6.15309 48.6499C6.70735 49.0316 7.16083 49.3674 7.16083 49.3961C7.16083 49.4249 6.65098 49.2505 6.02803 49.0086C3.37672 47.9794 1.90607 47.5935 1.44135 47.8052C1.15969 47.9338 0.998918 48.1571 1.00001 48.419C1.00508 49.6476 3.548 52.5764 5.99849 54.1761C6.76299 54.6753 7.33483 55.0837 7.26904 55.0837C7.20325 55.0837 6.32564 54.839 5.31898 54.5399C3.1295 53.8894 2.18284 53.8388 1.90552 54.357C1.62803 54.8756 2.0295 55.5515 3.31546 56.731C5.40254 58.6452 7.49415 59.5897 10.0026 59.7506C13.0819 59.948 14.8273 58.8417 13.6994 57.4078C13.3483 56.9614 13.083 56.8184 8.61083 54.6642C5.38315 53.1095 3.39503 51.4527 2.07735 49.2194L1.68748 48.5587H2.14604C2.39834 48.5587 3.56957 48.9197 4.74914 49.3609C7.5768 50.4187 8.39985 50.6113 9.69234 50.5178C12.5091 50.3141 12.116 48.473 8.39713 44.4521C7.20923 43.1678 5.73441 40.3095 5.27295 38.3972C4.95975 37.0992 4.88544 34.965 5.1535 34.965C5.24576 34.965 6.61183 36.315 8.18942 37.9649C11.8546 41.7983 13.9194 43.6668 17.8545 46.712C26.9211 53.7279 28.9176 55.8068 29.6391 58.9834C29.758 59.507 29.7941 60.3647 29.725 61.0237L29.606 62.1607L28.3068 63.1898C27.5923 63.7561 26.6933 64.5494 26.3092 64.953C25.5242 65.7777 23.6585 68.5124 23.0085 69.7907C22.648 70.4998 22.4459 70.6783 21.7264 70.9234C20.1417 71.4633 17.8297 71.6523 15.8073 71.4073C13.2463 71.0968 12.2257 70.4893 11.3727 68.7679C10.6252 67.259 10.6332 67.2273 11.764 67.2273C13.3365 67.2273 16.272 66.5837 17.6256 65.9421C19.4285 65.0875 21.1411 63.2864 22.2663 61.0614C23.1368 59.3399 23.4324 58.0743 22.9639 58.0743C22.8332 58.0743 22.4883 58.6668 22.1974 59.391C20.9026 62.6136 18.9346 64.7457 16.4468 65.6207C15.2019 66.0585 12.677 66.5007 11.4162 66.5016L10.5058 66.5023L9.35793 65.1268C8.21679 63.7593 6.84383 62.6961 6.21907 62.6961C5.76993 62.6961 5.1671 63.337 5.1671 63.8146C5.1671 64.4515 6.57341 65.6207 8.29092 66.4117C9.6811 67.0519 9.89008 67.211 10.0782 67.7711C10.674 69.5459 11.857 71.0662 13.0514 71.5922C14.7548 72.342 18.8182 72.489 21.0829 71.8823L22.0457 71.6246L21.6191 72.0993C16.1506 78.1826 11.3087 83.0139 8.06708 85.6214C4.15537 88.768 3.12207 90.0708 3.09542 91.8899C3.07259 93.4468 4.31269 94.1952 5.99649 93.6409C6.75248 93.3919 6.81048 93.394 6.69466 93.6656C6.21508 94.7893 6.05214 95.4982 6.13279 96.109C6.34612 97.725 7.77327 98.1591 9.43623 97.1136C11.4147 95.8699 13.7556 93.025 16.7282 88.2522C16.9456 87.9033 17.1248 87.6704 17.1264 87.7347C17.1313 87.9221 16.112 90.2775 14.5886 93.599C13.183 96.6636 12.5983 98.3903 12.5983 99.4762C12.5983 100.948 13.6523 102.025 15.0945 102.026C15.7528 102.027 15.9929 101.913 16.6951 101.265C17.7641 100.28 18.9882 97.7641 20.1165 94.2334C22.1059 88.008 22.9588 86.1568 24.7251 84.2299C25.8311 83.0233 27.9046 81.7655 30.516 80.717C33.4914 79.5223 33.4631 79.5234 34.1758 80.5761C36.4365 83.9154 39.1054 86.3649 47.0223 92.366C47.0649 92.3983 46.8725 92.662 46.5948 92.9518C45.765 93.8178 46.3592 94.2396 47.2315 93.4036L47.7191 92.9366L50.2321 94.7918C51.6141 95.8123 53.6829 97.3387 54.8293 98.1841C60.1259 102.089 63.1526 106.454 63.1629 110.202C63.1671 111.711 62.9697 112.465 62.306 113.476C60.8069 115.759 57.614 115.828 56.4991 113.601C56.1415 112.886 56.1091 112.663 56.263 111.976C56.5856 110.536 58.0426 109.804 59.2191 110.491C60.2533 111.095 60.3438 112.053 59.4243 112.663C59.1022 112.877 58.9936 112.86 58.5751 112.531C58.0841 112.145 57.7293 112.185 57.7293 112.628C57.7293 112.994 58.617 113.627 59.1312 113.627C59.3977 113.627 59.8267 113.378 60.1942 113.011C61.8001 111.405 60.0915 109.077 57.6439 109.536C56.7701 109.7 55.8189 110.651 55.5575 111.621C55.1358 113.188 55.7555 114.588 57.2502 115.445C58.9741 116.434 60.8676 116.089 62.3877 114.509C64.4569 112.359 64.5422 109.17 62.6286 105.509C61.0833 102.554 58.9942 100.329 54.956 97.3395C53.6401 96.3653 51.5882 94.848 50.3961 93.9675L48.2284 92.3665L49.8101 90.8578C51.6328 89.1193 55.3732 85.8912 58.0011 83.7889C63.0988 79.7108 65.7733 77.9096 73.0314 73.666C79.5159 69.8745 81.2535 68.7224 83.7613 66.5522L84.8716 65.5914L86.782 66.3918C91.0118 68.1638 93.5429 70.1501 95.6135 73.3218C96.8538 75.2219 97.2314 76.5477 97.4209 79.6708C97.5763 82.2282 97.764 82.9617 98.4696 83.7663C98.9654 84.3318 100.395 84.0539 101.05 83.265C101.27 83.0007 101.354 83.1129 101.788 84.2435C102.705 86.6293 103.393 87.3459 104.768 87.3459C105.564 87.3459 106.43 86.5771 106.602 85.7194C106.664 85.41 106.765 85.1826 106.826 85.2139C108.377 86.006 108.275 85.9833 109.067 85.7066C110.029 85.3702 110.449 84.6646 110.591 83.1457L110.699 81.9866L111.302 82.0569C111.826 82.118 111.954 82.0473 112.276 81.5195C113.887 78.8762 110.397 71.5519 104.854 65.9441C101.974 63.0305 99.4995 61.1956 93.8884 57.8129C90.1017 55.5301 88.1597 54.1504 87.2705 53.1113C86.6346 52.3684 86.1853 52.2397 86.1853 52.8005C86.1853 53.1296 87.7229 54.6905 88.9041 55.5603C89.4523 55.9642 91.369 57.1783 93.1634 58.2584C101.731 63.4158 105.054 66.3628 108.866 72.1839C110.934 75.3426 112.073 78.399 111.869 80.2477C111.683 81.9371 111.074 81.5873 110.189 79.2818C108.222 74.1579 105.877 70.7867 102.528 68.2659C98.6906 65.3771 94.3763 63.7591 89.0853 63.2241C87.9389 63.1081 86.9788 62.9944 86.9518 62.9716C86.9246 62.9488 87.1075 62.49 87.3578 61.9521C87.6971 61.2233 87.8135 60.6717 87.8147 59.7863C87.8176 57.8903 87.3125 57.0875 84.1682 53.9922C82.1219 51.9778 81.386 51.127 81.0322 50.3672C80.4548 49.1266 80.4276 47.8565 80.9483 46.4646C81.2874 45.5585 82.4559 43.8778 83.273 43.1212C83.4345 42.9717 84.4618 42.041 85.5557 41.0532C90.6486 36.454 91.9811 34.2734 93.5099 28.0383C94.2282 25.1087 94.499 22.8225 94.7178 17.837C94.9313 12.975 94.9021 12.1469 94.3053 6.11204C93.8975 1.987 93.9393 1.48675 94.6719 1.74322C96.1767 2.27011 97.9632 5.60763 98.5284 8.94714C98.9721 11.5705 98.4363 16.0718 97.2333 19.8277C96.9388 20.7472 96.6978 21.5523 96.6978 21.6166C96.6978 21.6811 96.8571 21.7339 97.0517 21.7339C97.7443 21.7339 99.1375 16.4456 99.4152 12.7621C99.531 11.2262 99.7143 10.3331 100.213 8.87337C101.201 5.98136 101.804 5.68865 102.751 7.6407C103.536 9.2578 103.811 10.8611 103.724 13.3058C103.63 15.9394 103.141 17.5465 101.235 21.4986C100.239 23.562 100.04 24.1117 100.231 24.2701C100.412 24.4209 100.561 24.3381 100.859 23.9196C101.392 23.1705 103.256 19.0296 103.759 17.4745C104.55 15.0322 106.089 12.8527 107.022 12.8527C107.211 12.8527 107.543 13.0769 107.761 13.3511C108.122 13.8061 108.148 13.9998 108.067 15.5714C107.998 16.8947 107.841 17.6708 107.391 18.9245C106.164 22.3449 105.061 24.029 102.127 26.9631C101.135 27.9554 100.323 28.8481 100.323 28.9467C100.323 29.8729 102.697 27.7635 105.593 24.2636C108.689 20.524 110.473 19.6707 110.473 21.93C110.473 22.6071 110.295 23.1511 109.693 24.3214C108.301 27.0267 106.326 29.1986 103.359 31.2877C102.059 32.2023 101.723 32.6257 102.105 32.8624C102.396 33.0418 104.414 31.9206 106.304 30.5302C109.199 28.4 110.367 27.7999 110.674 28.2848C111.273 29.2296 110.381 30.8733 108.071 33.0808C106.087 34.9777 104.216 36.0507 101.189 37.0278C99.9218 37.4369 99.3072 37.7249 99.2673 37.9283C99.2273 38.1325 99.3337 38.2275 99.6023 38.2275C100.377 38.2275 103.963 36.9035 105.347 36.1062C107.061 35.1191 107.947 34.7838 108.842 34.7838C110.373 34.7838 110.209 35.8136 108.394 37.61C106.636 39.3487 104.307 40.3929 99.9149 41.4117C98.7977 41.6709 98.5102 41.805 98.5102 42.0669C98.5102 42.7154 100.124 42.5702 104.113 41.5623C108.427 40.4725 109.266 40.5152 108.598 41.7909C107.98 42.9713 105.858 44.4581 103.88 45.0961C102.282 45.6116 101.001 45.8374 98.2824 46.0832C96.3811 46.2548 95.8821 46.3558 95.8821 46.5684C95.8821 46.9463 98.8979 46.8988 101.441 46.4807C102.595 46.2909 103.973 46.19 104.857 46.23C106.134 46.288 106.386 46.3544 106.673 46.7089C106.945 47.0456 106.972 47.2185 106.818 47.6599C106.397 48.8679 103.829 50.4874 101.616 50.941C100.479 51.1739 100.035 51.5314 100.514 51.8275C100.649 51.9105 100.83 51.9345 100.917 51.8806C101.172 51.7231 102.972 52.0024 103.314 52.2526C103.602 52.4632 103.605 52.5261 103.347 53.0243C102.534 54.5965 98.7301 55.9814 95.7915 55.7753C95.0776 55.7251 94.9759 55.7633 94.9759 56.0805C94.9759 56.4238 95.0868 56.4414 97.0749 56.4131C98.9262 56.3867 99.3366 56.32 100.553 55.8478C102.236 55.1942 103.627 54.2035 104.018 53.3794C104.414 52.5445 104.387 52.244 103.869 51.7264L103.429 51.2856L104.542 50.6924C106.063 49.882 107.509 48.448 107.67 47.5901C107.867 46.5405 107.201 45.7684 105.851 45.4795L105.307 45.3631L105.941 45.0367C107.916 44.0208 109.566 42.2714 109.566 41.1951C109.566 40.3021 108.972 39.9778 107.507 40.0712L106.354 40.1446L107.144 39.6438C109.032 38.4461 110.654 36.4921 110.654 35.4144C110.654 34.5857 110.017 34.0588 109.016 34.0588H108.218L109.318 32.926C111.238 30.9491 111.887 29.616 111.54 28.362C111.228 27.2293 110.501 27.0896 108.963 27.8655L107.946 28.3785L108.574 27.5483C109.65 26.1239 110.794 24.0448 111.113 22.9305C111.363 22.0592 111.382 21.7335 111.213 21.1698C110.8 19.7916 109.758 19.5727 108.296 20.5568C107.636 21.0013 107.392 21.0966 107.487 20.874C108.019 19.6196 108.675 17.4531 108.842 16.3945C109.242 13.8659 108.481 12.1277 106.973 12.1277C106.365 12.1277 106.132 12.2515 105.441 12.9433C104.992 13.3919 104.615 13.7582 104.603 13.7573C104.592 13.7564 104.559 13.0637 104.53 12.2178C104.441 9.63262 103.6 7.00959 102.546 6.03302C101.495 5.05844 100.488 5.73704 99.7661 7.90677L99.3574 9.13545L99.1196 7.95806C98.4916 4.84693 96.7061 1.80285 95.1176 1.13531C94.3296 0.804172 94.2136 0.820484 93.699 1.33523ZM60.1881 21.4805C58.7319 21.8327 56.7726 22.8101 55.5003 23.8193C54.5036 24.6099 52.5943 26.9731 51.7758 28.4296L51.3988 29.1004L52.2996 30.3359C54.6223 33.5219 55.9672 36.9408 55.439 38.3172C55.2655 38.7687 54.5877 38.9567 53.8583 38.7553C51.9336 38.2239 50.4014 34.4218 50.5001 30.4231C50.5429 28.6922 50.5395 28.6772 49.8409 27.5193C49.4547 26.8793 48.4004 25.6153 47.4981 24.7102C46.2044 23.4126 45.5526 22.9145 44.4158 22.3539C43.1003 21.7056 42.8462 21.6433 41.5158 21.6433C40.2525 21.6433 39.8946 21.7205 38.8386 22.2207C35.6245 23.7432 34.0386 27.3917 34.9896 31.0754C36.2018 35.7716 40.5721 40.4784 49.1199 46.2936C51.424 47.8613 54.9242 51.3438 56.2697 53.4071C56.8058 54.2296 57.2953 54.9024 57.3572 54.9024C57.4191 54.9024 57.6241 54.6374 57.8128 54.3134C59.1676 51.9868 61.4032 49.4909 64.3519 47.0128C66.3107 45.3667 68.7231 42.9597 70.4841 40.8942L71.3671 39.8586L70.756 38.8389C70.4172 38.2736 69.8267 37.6071 69.4309 37.3436C68.7802 36.9102 68.5576 36.8682 66.9142 36.8682C64.4773 36.8682 64.3479 36.6778 65.753 35.1602C67.2919 33.4978 67.6465 32.9593 67.7906 32.0651C68.0909 30.2027 69.1119 29.2755 71.3758 28.8087C72.3301 28.6121 72.4149 28.5566 72.3069 28.199C71.9937 27.1617 71.1168 25.8691 69.8766 24.6168C68.8206 23.5504 68.1665 23.0699 66.9729 22.4839C64.5025 21.2708 62.3631 20.9545 60.1881 21.4805ZM93.444 21.9575C93.0345 23.324 91.3442 26.4743 89.6736 28.9838C87.7225 31.915 85.6644 34.4023 83.5634 36.3679L82.0148 37.817L82.4688 39.0232C83.0026 40.4415 83.01 40.5116 82.6403 40.6534C82.4298 40.7342 82.2586 40.5194 81.9695 39.8118C81.756 39.2895 81.112 37.9239 80.5385 36.7775C77.949 31.6016 75.9484 29.7279 72.832 29.5595C70.7067 29.4447 69.0928 30.2083 68.6856 31.5213C68.6084 31.7705 68.5603 32.8105 68.579 33.8322C68.6053 35.2701 68.5587 35.69 68.3729 35.69C68.241 35.69 68.0537 35.6108 67.9569 35.514C67.8433 35.4004 67.5901 35.464 67.241 35.6942L66.7011 36.0502L67.5678 36.0513C68.0445 36.052 68.7378 36.1789 69.1084 36.3333C70.6097 36.9586 71.9698 38.9145 72.4236 41.1001C72.6546 42.2132 72.5706 45.0309 72.2295 47.6064C71.6671 51.8525 72.9552 55.7173 75.9984 58.9153C77.6722 60.6741 79.2893 61.943 81.1698 62.9732C82.3231 63.6049 82.4545 63.6372 83.0952 63.4452C83.4735 63.3319 84.2824 63.1869 84.8928 63.1231L86.0026 63.0071L86.4887 62.0135C87.1991 60.5617 87.25 59.3591 86.6562 58.0621C86.2758 57.2311 85.6479 56.5005 83.5652 54.4656C81.3378 52.2892 80.8664 51.7293 80.3739 50.6766C79.8427 49.5402 79.8034 49.3299 79.8831 48.0485C80.045 45.4492 80.7267 44.5333 86.6549 38.9525C90.2707 35.5487 91.6444 32.9396 92.953 26.9901C93.4269 24.8343 93.9085 21.4216 93.7595 21.2726C93.7128 21.226 93.5708 21.5341 93.444 21.9575ZM51.2043 31.0522C51.2043 34.2388 52.8932 38.0463 54.3066 38.0463C54.76 38.0463 54.8293 37.9781 54.8293 37.531C54.8293 36.8633 54.3078 35.3591 53.5625 33.8768C52.9253 32.6093 51.453 30.2526 51.2985 30.2526C51.2467 30.2526 51.2043 30.6124 51.2043 31.0522ZM69.7774 31.708C69.3 32.2354 69.5947 33.0395 70.2951 33.1203C70.9419 33.195 71.3229 32.8763 71.3229 32.2604C71.3229 31.3383 70.408 31.0113 69.7774 31.708ZM67.4089 34.4666L67.0636 34.8744L67.4714 34.5291C67.6958 34.3392 67.8792 34.1558 67.8792 34.1213C67.8792 33.9763 67.7333 34.0834 67.4089 34.4666ZM2.51506 41.7588C2.17577 42.6433 3.5094 45.0093 5.49316 47.0424C7.37489 48.9707 10.591 50.2835 10.7479 49.1873C10.8221 48.6702 9.59972 46.8515 8.1336 45.2973C5.748 42.7683 2.83225 40.9321 2.51506 41.7588ZM37.2958 50.5805C35.5674 51.4188 34.4986 53.0288 33.3437 56.5336C32.4247 59.3225 32.0097 60.217 30.9999 61.5852C30.5312 62.2203 30.0294 63.076 29.8844 63.4869C29.4751 64.6467 28.6066 66.0938 27.3514 67.7062C26.1447 69.2566 25.4043 69.9279 23.9552 70.786C23.0933 71.2964 23.0484 71.369 21.3979 74.9304C20.4741 76.9241 19.369 79.1671 18.9424 79.9147C16.6053 84.0101 13.1817 88.1663 9.45671 91.4297C7.97754 92.7256 7.3526 93.6735 6.96654 95.2072C6.78728 95.919 6.80015 96.1124 7.05299 96.4983C7.21666 96.7479 7.515 96.9521 7.716 96.9521C8.9813 96.9521 12.0098 94.1192 13.9896 91.084C17.9772 84.9701 17.9609 84.9913 18.4345 85.2841C18.8488 85.54 18.194 87.4281 15.8958 92.6045C14.451 95.8587 14.2373 97.3775 15.155 97.8687C15.9742 98.3072 16.7855 96.9578 18.2119 92.7834C19.9978 87.5573 23.1767 82.8492 25.2725 82.3268C25.529 82.2628 26.5545 81.7825 27.5513 81.2594C28.5482 80.7363 30.2052 79.9996 31.2334 79.6222C32.6789 79.0919 33.081 78.8726 33.0069 78.6552C32.9544 78.5006 32.6903 77.7624 32.4204 77.0148C31.7699 75.2124 31.6082 71.6891 32.0715 69.4034C33 64.8202 35.9118 60.7024 38.224 60.7024C40.202 60.7024 41.6231 63.1728 41.6128 66.593C41.6072 68.4642 41.2996 69.6836 40.4015 71.3961C39.6064 72.9122 37.7982 75.3484 36.2487 76.9908C35.5779 77.7019 35.075 78.2835 35.1306 78.2835C35.5315 78.2835 38.03 76.7298 39.2727 75.7078C41.4629 73.9063 42.8669 70.21 42.8669 66.2453C42.8669 64.8878 42.7451 64.1267 42.224 62.2285C41.0078 57.7991 41.0569 57.369 43.0566 54.9477C43.1594 54.8232 43.4648 54.7145 43.7349 54.7063L44.2262 54.6916L43.6372 54.4341C42.515 53.9432 43.0753 53.3774 44.2436 53.8214C44.714 54.0003 44.7036 53.971 44.0288 53.2099C43.639 52.7702 43.0421 52.0642 42.7026 51.641C42.363 51.218 41.7513 50.7203 41.3433 50.5349C40.3011 50.0616 38.3195 50.0839 37.2958 50.5805ZM40.432 52.4244C39.7787 52.902 40.1907 54.1774 40.9984 54.1774C41.3215 54.1774 41.9606 53.5153 41.9606 53.1805C41.9606 52.8458 41.3215 52.1837 40.9984 52.1837C40.8679 52.1837 40.613 52.2921 40.432 52.4244ZM2.79074 55.046C3.34047 56.0733 5.91711 57.9407 7.64151 58.5615C9.09712 59.0854 12.1015 59.1377 12.8437 58.6517C13.1199 58.471 13.3148 58.2263 13.2769 58.108C13.1308 57.6525 11.2949 56.7461 10.0974 56.5382C9.42935 56.422 7.58115 55.9658 5.99015 55.5241C2.68852 54.6075 2.54461 54.5859 2.79074 55.046ZM37.1463 61.7672C35.7019 62.6479 33.9973 65.4141 33.1619 68.2331C32.5061 70.4456 32.3573 73.4739 32.8048 75.4941C33.1434 77.0222 33.5858 78.2835 33.7834 78.2835C33.8497 78.2835 34.4797 77.6923 35.1835 76.9695C38.9506 73.1002 40.6562 70.1541 40.8283 67.2194C41.066 63.1666 39.2531 60.4823 37.1463 61.7672ZM5.97365 63.617C5.78787 63.9175 6.7175 64.7776 7.92262 65.4197C8.79081 65.8826 8.97042 65.9307 8.82325 65.661C8.48649 65.0438 6.60404 63.4211 6.22505 63.4211C6.15327 63.4211 6.04017 63.5094 5.97365 63.617ZM28.0429 64.3727C26.7924 65.371 25.01 67.6431 24.1228 69.3693L23.8138 69.9705L24.2325 69.7478C25.308 69.1758 28.2966 65.4692 28.786 64.1008C28.9379 63.6758 28.8967 63.6908 28.0429 64.3727ZM84.4181 63.9163C83.5402 63.9953 83.4416 64.1753 84.1095 64.4794C84.7004 64.7487 84.6451 64.764 84.9905 64.2367C85.1538 63.9875 85.2651 63.7979 85.2379 63.8153C85.2108 63.8327 84.8417 63.8782 84.4181 63.9163ZM85.8469 64.3384C85.6109 64.6413 85.4518 64.9231 85.4935 64.9646C85.535 65.0061 86.0135 65.2367 86.5569 65.4768C87.2108 65.7659 88.2186 65.9874 89.5384 66.1322C93.9507 66.6162 96.1464 67.6674 99.5591 70.9301C102.733 73.964 104.824 77.3276 106.218 81.6381C107.104 84.3787 107.439 84.8819 108.43 84.9544C109.122 85.0051 109.21 84.9602 109.502 84.4106C109.908 83.6427 109.896 81.5367 109.475 79.9089C109.1 78.4566 107.475 75.0031 106.465 73.5098C105.294 71.7798 103.901 70.2685 102.457 69.1629C98.1166 65.8388 93.9393 64.3522 87.6353 63.888C86.2875 63.7887 86.2723 63.7925 85.8469 64.3384ZM82.5603 64.8626C82.5603 65.2189 82.9892 65.9586 83.1958 65.9586C83.3138 65.9586 83.5572 65.7962 83.7368 65.5979C84.0555 65.2459 84.0475 65.2307 83.4082 64.9635C82.6395 64.6424 82.5603 64.6329 82.5603 64.8626ZM90.0998 67.0745C90.1518 67.1586 90.3178 67.2273 90.469 67.2273C90.8795 67.2273 93.161 68.7505 94.704 70.0546C97.9505 72.7987 99.6507 75.5907 101.591 81.3647C103.041 85.6808 103.594 86.621 104.68 86.621C105.996 86.621 106.35 84.4844 105.479 81.7957C104.839 79.8194 103.211 76.4828 102.185 75.044C101.13 73.5631 98.7923 71.1077 97.335 69.949C96.0509 68.9278 94.2514 67.9253 92.9822 67.5242C91.8396 67.1632 89.9747 66.8723 90.0998 67.0745ZM96.6929 73.5866C97.7408 75.5624 97.9585 76.4253 98.1414 79.3313C98.2592 81.2014 98.3959 82.1068 98.6339 82.5938C99.0917 83.5303 99.6253 83.5722 100.416 82.7333L101.032 82.0803L100.39 80.2272C99.5129 77.6961 98.4943 75.566 97.5239 74.2337C96.123 72.3103 95.9403 72.168 96.6929 73.5866ZM18.7512 76.3351C14.7662 80.6243 10.8509 84.4046 8.24833 86.4761C5.36865 88.7682 4.50971 89.7004 4.06384 91.0175C3.50033 92.6823 4.04172 93.3237 5.65647 92.9039C6.71406 92.6292 7.48273 92.119 9.54371 90.3233C12.0495 88.1402 14.89 84.8331 16.9635 81.6846C18.202 79.804 21.1348 74.1148 20.8656 74.1148C20.8373 74.1148 19.8858 75.1138 18.7512 76.3351ZM22.0566 86.3944C21.1697 87.6434 19.7979 90.5689 18.9331 93.0553C18.4129 94.5506 17.7579 96.232 17.4775 96.7921C16.9591 97.8267 16.0502 98.7646 15.5661 98.7646C15.0606 98.7646 14.2997 98.247 14.0537 97.736L13.8074 97.224L13.5542 98.3115C13.2421 99.6524 13.374 100.448 13.9888 100.932C15.1403 101.838 16.4411 100.98 17.6653 98.5087C18.0769 97.6779 19.0624 95.0207 19.855 92.604C20.6477 90.1874 21.5728 87.6894 21.9107 87.053C22.5728 85.8061 22.6176 85.6041 22.0566 86.3944Z" fill="white"/>
<path fill-rule="evenodd" clip-rule="evenodd" d="M93.699 1.33523C93.1417 1.89239 93.1373 2.24419 93.6308 6.87238C94.1128 11.3909 94.1527 15.9698 93.7294 18.1587C92.9078 22.4076 90.3687 27.2694 86.4197 32.1557C84.9599 33.9618 82.022 36.9628 81.7215 36.9544C81.6345 36.9521 81.1557 36.2017 80.6572 35.2869C79.4994 33.1622 78.0913 31.2315 77.1463 30.4733C76.2315 29.7395 74.7683 28.9918 73.9909 28.8611C73.4631 28.7723 73.3335 28.6094 72.6362 27.1574C70.872 23.4838 67.0235 20.843 62.9692 20.524C60.4694 20.3274 57.6564 21.2548 55.2612 23.0653C54.0595 23.9736 53.3238 24.8022 51.9547 26.7896L51.0713 28.0721L50.4204 27.0176C48.8658 24.4992 45.8703 21.9182 43.6408 21.1762C41.1881 20.36 38.3445 21.064 36.4168 22.9646C33.7214 25.6217 33.2284 29.8049 35.1518 33.697C37.304 38.0517 40.7542 41.4354 48.5512 46.8385C51.952 49.1951 54.598 51.9647 56.4718 55.129C56.8112 55.7023 57.1832 56.1712 57.2982 56.1712C57.4135 56.1712 58.1456 55.2127 58.9251 54.0415C60.4346 51.7733 62.7129 49.3354 65.523 46.9811C67.0273 45.7209 68.9181 43.8377 70.6523 41.8726C71.1263 41.3354 71.5614 40.9432 71.6193 41.0008C71.8853 41.2671 71.8817 44.2676 71.6129 46.1633C71.4534 47.2883 71.3229 48.7001 71.3229 49.3006C71.3229 51.873 72.0695 54.6367 73.3437 56.7814C74.7248 59.1065 77.988 62.1261 80.7698 63.654C81.7386 64.186 81.8312 64.2902 81.8332 64.8497C81.8344 65.1868 81.9988 65.7271 82.1986 66.0505L82.562 66.6383L81.6095 67.3634C80.0704 68.5356 77.5688 70.1529 74.9479 71.6705C67.4658 76.003 64.4056 77.9368 61.0824 80.4318C57.1391 83.3925 52.0933 87.6276 48.9969 90.5756L47.6034 91.9022L44.6208 89.5782C40.8352 86.6286 38.4404 84.536 36.9949 82.9148C35.7633 81.5333 34.5294 79.8819 34.5294 79.6148C34.5294 79.5234 35.0799 79.1774 35.7528 78.8456C39.0856 77.2022 40.9427 75.5466 42.1007 73.1864C43.2712 70.8008 43.4902 69.7507 43.4949 66.5023C43.4985 63.8677 43.4624 63.569 42.9163 61.6992C42.1386 59.0371 42.0233 57.8988 42.4485 57.0836C42.9006 56.217 43.6852 55.8166 45.1577 55.7015C47.7613 55.4978 47.8639 55.214 45.868 53.7379C45.1261 53.1892 44.1892 52.2939 43.7861 51.7481C42.8353 50.4611 42.1143 49.9302 40.803 49.5516C38.8603 48.9906 37.0444 49.505 35.3671 51.0913C34.2066 52.1888 33.5942 53.3676 32.4594 56.6877C32.0044 58.0186 31.4074 59.5214 31.1324 60.0274L30.6326 60.9474L30.5084 59.7037C30.1318 55.9335 28.2185 53.8001 18.3983 46.1994C14.8541 43.4564 13.7483 42.4667 9.95279 38.6415C5.42012 34.0735 5.04022 33.7913 4.42416 34.5335C3.81969 35.2619 4.41111 39.099 5.44133 41.1322C5.68928 41.6214 5.89209 42.0593 5.89209 42.1052C5.89209 42.151 5.42973 41.9101 4.86477 41.5699C3.56286 40.786 2.77842 40.6258 2.17577 41.0207C1.50714 41.4588 1.54901 42.6529 2.28144 44.0269C3.1217 45.6033 5.01884 47.8687 6.15309 48.6499C6.70735 49.0316 7.16083 49.3674 7.16083 49.3961C7.16083 49.4249 6.65098 49.2505 6.02803 49.0086C3.37672 47.9794 1.90607 47.5935 1.44135 47.8052C1.15969 47.9338 0.998918 48.1571 1.00001 48.419C1.00508 49.6476 3.548 52.5764 5.99849 54.1761C6.76299 54.6753 7.33483 55.0837 7.26904 55.0837C7.20325 55.0837 6.32564 54.839 5.31898 54.5399C3.1295 53.8894 2.18284 53.8388 1.90552 54.357C1.62803 54.8756 2.0295 55.5515 3.31546 56.731C5.40254 58.6452 7.49415 59.5897 10.0026 59.7506C13.0819 59.948 14.8273 58.8417 13.6994 57.4078C13.3483 56.9614 13.083 56.8184 8.61083 54.6642C5.38315 53.1095 3.39503 51.4527 2.07735 49.2194L1.68748 48.5587H2.14604C2.39834 48.5587 3.56957 48.9197 4.74914 49.3609C7.5768 50.4187 8.39985 50.6113 9.69234 50.5178C12.5091 50.3141 12.116 48.473 8.39713 44.4521C7.20923 43.1678 5.73441 40.3095 5.27295 38.3972C4.95975 37.0992 4.88544 34.965 5.1535 34.965C5.24576 34.965 6.61183 36.315 8.18942 37.9649C11.8546 41.7983 13.9194 43.6668 17.8545 46.712C26.9211 53.7279 28.9176 55.8068 29.6391 58.9834C29.758 59.507 29.7941 60.3647 29.725 61.0237L29.606 62.1607L28.3068 63.1898C27.5923 63.7561 26.6933 64.5494 26.3092 64.953C25.5242 65.7777 23.6585 68.5124 23.0085 69.7907C22.648 70.4998 22.4459 70.6783 21.7264 70.9234C20.1417 71.4633 17.8297 71.6523 15.8073 71.4073C13.2463 71.0968 12.2257 70.4893 11.3727 68.7679C10.6252 67.259 10.6332 67.2273 11.764 67.2273C13.3365 67.2273 16.272 66.5837 17.6256 65.9421C19.4285 65.0875 21.1411 63.2864 22.2663 61.0614C23.1368 59.3399 23.4324 58.0743 22.9639 58.0743C22.8332 58.0743 22.4883 58.6668 22.1974 59.391C20.9026 62.6136 18.9346 64.7457 16.4468 65.6207C15.2019 66.0585 12.677 66.5007 11.4162 66.5016L10.5058 66.5023L9.35793 65.1268C8.21679 63.7593 6.84383 62.6961 6.21907 62.6961C5.76993 62.6961 5.1671 63.337 5.1671 63.8146C5.1671 64.4515 6.57341 65.6207 8.29092 66.4117C9.6811 67.0519 9.89008 67.211 10.0782 67.7711C10.674 69.5459 11.857 71.0662 13.0514 71.5922C14.7548 72.342 18.8182 72.489 21.0829 71.8823L22.0457 71.6246L21.6191 72.0993C16.1506 78.1826 11.3087 83.0139 8.06708 85.6214C4.15537 88.768 3.12207 90.0708 3.09542 91.8899C3.07259 93.4468 4.31269 94.1952 5.99649 93.6409C6.75248 93.3919 6.81048 93.394 6.69466 93.6656C6.21508 94.7893 6.05214 95.4982 6.13279 96.109C6.34612 97.725 7.77327 98.1591 9.43623 97.1136C11.4147 95.8699 13.7556 93.025 16.7282 88.2522C16.9456 87.9033 17.1248 87.6704 17.1264 87.7347C17.1313 87.9221 16.112 90.2775 14.5886 93.599C13.183 96.6636 12.5983 98.3903 12.5983 99.4762C12.5983 100.948 13.6523 102.025 15.0945 102.026C15.7528 102.027 15.9929 101.913 16.6951 101.265C17.7641 100.28 18.9882 97.7641 20.1165 94.2334C22.1059 88.008 22.9588 86.1568 24.7251 84.2299C25.8311 83.0233 27.9046 81.7655 30.516 80.717C33.4914 79.5223 33.4631 79.5234 34.1758 80.5761C36.4365 83.9154 39.1054 86.3649 47.0223 92.366C47.0649 92.3983 46.8725 92.662 46.5948 92.9518C45.765 93.8178 46.3592 94.2396 47.2315 93.4036L47.7191 92.9366L50.2321 94.7918C51.6141 95.8123 53.6829 97.3387 54.8293 98.1841C60.1259 102.089 63.1526 106.454 63.1629 110.202C63.1671 111.711 62.9697 112.465 62.306 113.476C60.8069 115.759 57.614 115.828 56.4991 113.601C56.1415 112.886 56.1091 112.663 56.263 111.976C56.5856 110.536 58.0426 109.804 59.2191 110.491C60.2533 111.095 60.3438 112.053 59.4243 112.663C59.1022 112.877 58.9936 112.86 58.5751 112.531C58.0841 112.145 57.7293 112.185 57.7293 112.628C57.7293 112.994 58.617 113.627 59.1312 113.627C59.3977 113.627 59.8267 113.378 60.1942 113.011C61.8001 111.405 60.0915 109.077 57.6439 109.536C56.7701 109.7 55.8189 110.651 55.5575 111.621C55.1358 113.188 55.7555 114.588 57.2502 115.445C58.9741 116.434 60.8676 116.089 62.3877 114.509C64.4569 112.359 64.5422 109.17 62.6286 105.509C61.0833 102.554 58.9942 100.329 54.956 97.3395C53.6401 96.3653 51.5882 94.848 50.3961 93.9675L48.2284 92.3665L49.8101 90.8578C51.6328 89.1193 55.3732 85.8912 58.0011 83.7889C63.0988 79.7108 65.7733 77.9096 73.0314 73.666C79.5159 69.8745 81.2535 68.7224 83.7613 66.5522L84.8716 65.5914L86.782 66.3918C91.0118 68.1638 93.5429 70.1501 95.6135 73.3218C96.8538 75.2219 97.2314 76.5477 97.4209 79.6708C97.5763 82.2282 97.764 82.9617 98.4696 83.7663C98.9654 84.3318 100.395 84.0539 101.05 83.265C101.27 83.0007 101.354 83.1129 101.788 84.2435C102.705 86.6293 103.393 87.3459 104.768 87.3459C105.564 87.3459 106.43 86.5771 106.602 85.7194C106.664 85.41 106.765 85.1826 106.826 85.2139C108.377 86.006 108.275 85.9833 109.067 85.7066C110.029 85.3702 110.449 84.6646 110.591 83.1457L110.699 81.9866L111.302 82.0569C111.826 82.118 111.954 82.0473 112.276 81.5195C113.887 78.8762 110.397 71.5519 104.854 65.9441C101.974 63.0305 99.4995 61.1956 93.8884 57.8129C90.1017 55.5301 88.1597 54.1504 87.2705 53.1113C86.6346 52.3684 86.1853 52.2397 86.1853 52.8005C86.1853 53.1296 87.7229 54.6905 88.9041 55.5603C89.4523 55.9642 91.369 57.1783 93.1634 58.2584C101.731 63.4158 105.054 66.3628 108.866 72.1839C110.934 75.3426 112.073 78.399 111.869 80.2477C111.683 81.9371 111.074 81.5873 110.189 79.2818C108.222 74.1579 105.877 70.7867 102.528 68.2659C98.6906 65.3771 94.3763 63.7591 89.0853 63.2241C87.9389 63.1081 86.9788 62.9944 86.9518 62.9716C86.9246 62.9488 87.1075 62.49 87.3578 61.9521C87.6971 61.2233 87.8135 60.6717 87.8147 59.7863C87.8176 57.8903 87.3125 57.0875 84.1682 53.9922C82.1219 51.9778 81.386 51.127 81.0322 50.3672C80.4548 49.1266 80.4276 47.8565 80.9483 46.4646C81.2874 45.5585 82.4559 43.8778 83.273 43.1212C83.4345 42.9717 84.4618 42.041 85.5557 41.0532C90.6486 36.454 91.9811 34.2734 93.5099 28.0383C94.2282 25.1087 94.499 22.8225 94.7178 17.837C94.9313 12.975 94.9021 12.1469 94.3053 6.11204C93.8975 1.987 93.9393 1.48675 94.6719 1.74322C96.1767 2.27011 97.9632 5.60763 98.5284 8.94714C98.9721 11.5705 98.4363 16.0718 97.2333 19.8277C96.9388 20.7472 96.6978 21.5523 96.6978 21.6166C96.6978 21.6811 96.8571 21.7339 97.0517 21.7339C97.7443 21.7339 99.1375 16.4456 99.4152 12.7621C99.531 11.2262 99.7143 10.3331 100.213 8.87337C101.201 5.98136 101.804 5.68865 102.751 7.6407C103.536 9.2578 103.811 10.8611 103.724 13.3058C103.63 15.9394 103.141 17.5465 101.235 21.4986C100.239 23.562 100.04 24.1117 100.231 24.2701C100.412 24.4209 100.561 24.3381 100.859 23.9196C101.392 23.1705 103.256 19.0296 103.759 17.4745C104.55 15.0322 106.089 12.8527 107.022 12.8527C107.211 12.8527 107.543 13.0769 107.761 13.3511C108.122 13.8061 108.148 13.9998 108.067 15.5714C107.998 16.8947 107.841 17.6708 107.391 18.9245C106.164 22.3449 105.061 24.029 102.127 26.9631C101.135 27.9554 100.323 28.8481 100.323 28.9467C100.323 29.8729 102.697 27.7635 105.593 24.2636C108.689 20.524 110.473 19.6707 110.473 21.93C110.473 22.6071 110.295 23.1511 109.693 24.3214C108.301 27.0267 106.326 29.1986 103.359 31.2877C102.059 32.2023 101.723 32.6257 102.105 32.8624C102.396 33.0418 104.414 31.9206 106.304 30.5302C109.199 28.4 110.367 27.7999 110.674 28.2848C111.273 29.2296 110.381 30.8733 108.071 33.0808C106.087 34.9777 104.216 36.0507 101.189 37.0278C99.9218 37.4369 99.3072 37.7249 99.2673 37.9283C99.2273 38.1325 99.3337 38.2275 99.6023 38.2275C100.377 38.2275 103.963 36.9035 105.347 36.1062C107.061 35.1191 107.947 34.7838 108.842 34.7838C110.373 34.7838 110.209 35.8136 108.394 37.61C106.636 39.3487 104.307 40.3929 99.9149 41.4117C98.7977 41.6709 98.5102 41.805 98.5102 42.0669C98.5102 42.7154 100.124 42.5702 104.113 41.5623C108.427 40.4725 109.266 40.5152 108.598 41.7909C107.98 42.9713 105.858 44.4581 103.88 45.0961C102.282 45.6116 101.001 45.8374 98.2824 46.0832C96.3811 46.2548 95.8821 46.3558 95.8821 46.5684C95.8821 46.9463 98.8979 46.8988 101.441 46.4807C102.595 46.2909 103.973 46.19 104.857 46.23C106.134 46.288 106.386 46.3544 106.673 46.7089C106.945 47.0456 106.972 47.2185 106.818 47.6599C106.397 48.8679 103.829 50.4874 101.616 50.941C100.479 51.1739 100.035 51.5314 100.514 51.8275C100.649 51.9105 100.83 51.9345 100.917 51.8806C101.172 51.7231 102.972 52.0024 103.314 52.2526C103.602 52.4632 103.605 52.5261 103.347 53.0243C102.534 54.5965 98.7301 55.9814 95.7915 55.7753C95.0776 55.7251 94.9759 55.7633 94.9759 56.0805C94.9759 56.4238 95.0868 56.4414 97.0749 56.4131C98.9262 56.3867 99.3366 56.32 100.553 55.8478C102.236 55.1942 103.627 54.2035 104.018 53.3794C104.414 52.5445 104.387 52.244 103.869 51.7264L103.429 51.2856L104.542 50.6924C106.063 49.882 107.509 48.448 107.67 47.5901C107.867 46.5405 107.201 45.7684 105.851 45.4795L105.307 45.3631L105.941 45.0367C107.916 44.0208 109.566 42.2714 109.566 41.1951C109.566 40.3021 108.972 39.9778 107.507 40.0712L106.354 40.1446L107.144 39.6438C109.032 38.4461 110.654 36.4921 110.654 35.4144C110.654 34.5857 110.017 34.0588 109.016 34.0588H108.218L109.318 32.926C111.238 30.9491 111.887 29.616 111.54 28.362C111.228 27.2293 110.501 27.0896 108.963 27.8655L107.946 28.3785L108.574 27.5483C109.65 26.1239 110.794 24.0448 111.113 22.9305C111.363 22.0592 111.382 21.7335 111.213 21.1698C110.8 19.7916 109.758 19.5727 108.296 20.5568C107.636 21.0013 107.392 21.0966 107.487 20.874C108.019 19.6196 108.675 17.4531 108.842 16.3945C109.242 13.8659 108.481 12.1277 106.973 12.1277C106.365 12.1277 106.132 12.2515 105.441 12.9433C104.992 13.3919 104.615 13.7582 104.603 13.7573C104.592 13.7564 104.559 13.0637 104.53 12.2178C104.441 9.63262 103.6 7.00959 102.546 6.03302C101.495 5.05844 100.488 5.73704 99.7661 7.90677L99.3574 9.13545L99.1196 7.95806C98.4916 4.84693 96.7061 1.80285 95.1176 1.13531C94.3296 0.804172 94.2136 0.820484 93.699 1.33523ZM60.1881 21.4805C58.7319 21.8327 56.7726 22.8101 55.5003 23.8193C54.5036 24.6099 52.5943 26.9731 51.7758 28.4296L51.3988 29.1004L52.2996 30.3359C54.6223 33.5219 55.9672 36.9408 55.439 38.3172C55.2655 38.7687 54.5877 38.9567 53.8583 38.7553C51.9336 38.2239 50.4014 34.4218 50.5001 30.4231C50.5429 28.6922 50.5395 28.6772 49.8409 27.5193C49.4547 26.8793 48.4004 25.6153 47.4981 24.7102C46.2044 23.4126 45.5526 22.9145 44.4158 22.3539C43.1003 21.7056 42.8462 21.6433 41.5158 21.6433C40.2525 21.6433 39.8946 21.7205 38.8386 22.2207C35.6245 23.7432 34.0386 27.3917 34.9896 31.0754C36.2018 35.7716 40.5721 40.4784 49.1199 46.2936C51.424 47.8613 54.9242 51.3438 56.2697 53.4071C56.8058 54.2296 57.2953 54.9024 57.3572 54.9024C57.4191 54.9024 57.6241 54.6374 57.8128 54.3134C59.1676 51.9868 61.4032 49.4909 64.3519 47.0128C66.3107 45.3667 68.7231 42.9597 70.4841 40.8942L71.3671 39.8586L70.756 38.8389C70.4172 38.2736 69.8267 37.6071 69.4309 37.3436C68.7802 36.9102 68.5576 36.8682 66.9142 36.8682C64.4773 36.8682 64.3479 36.6778 65.753 35.1602C67.2919 33.4978 67.6465 32.9593 67.7906 32.0651C68.0909 30.2027 69.1119 29.2755 71.3758 28.8087C72.3301 28.6121 72.4149 28.5566 72.3069 28.199C71.9937 27.1617 71.1168 25.8691 69.8766 24.6168C68.8206 23.5504 68.1665 23.0699 66.9729 22.4839C64.5025 21.2708 62.3631 20.9545 60.1881 21.4805ZM93.444 21.9575C93.0345 23.324 91.3442 26.4743 89.6736 28.9838C87.7225 31.915 85.6644 34.4023 83.5634 36.3679L82.0148 37.817L82.4688 39.0232C83.0026 40.4415 83.01 40.5116 82.6403 40.6534C82.4298 40.7342 82.2586 40.5194 81.9695 39.8118C81.756 39.2895 81.112 37.9239 80.5385 36.7775C77.949 31.6016 75.9484 29.7279 72.832 29.5595C70.7067 29.4447 69.0928 30.2083 68.6856 31.5213C68.6084 31.7705 68.5603 32.8105 68.579 33.8322C68.6053 35.2701 68.5587 35.69 68.3729 35.69C68.241 35.69 68.0537 35.6108 67.9569 35.514C67.8433 35.4004 67.5901 35.464 67.241 35.6942L66.7011 36.0502L67.5678 36.0513C68.0445 36.052 68.7378 36.1789 69.1084 36.3333C70.6097 36.9586 71.9698 38.9145 72.4236 41.1001C72.6546 42.2132 72.5706 45.0309 72.2295 47.6064C71.6671 51.8525 72.9552 55.7173 75.9984 58.9153C77.6722 60.6741 79.2893 61.943 81.1698 62.9732C82.3231 63.6049 82.4545 63.6372 83.0952 63.4452C83.4735 63.3319 84.2824 63.1869 84.8928 63.1231L86.0026 63.0071L86.4887 62.0135C87.1991 60.5617 87.25 59.3591 86.6562 58.0621C86.2758 57.2311 85.6479 56.5005 83.5652 54.4656C81.3378 52.2892 80.8664 51.7293 80.3739 50.6766C79.8427 49.5402 79.8034 49.3299 79.8831 48.0485C80.045 45.4492 80.7267 44.5333 86.6549 38.9525C90.2707 35.5487 91.6444 32.9396 92.953 26.9901C93.4269 24.8343 93.9085 21.4216 93.7595 21.2726C93.7128 21.226 93.5708 21.5341 93.444 21.9575ZM51.2043 31.0522C51.2043 34.2388 52.8932 38.0463 54.3066 38.0463C54.76 38.0463 54.8293 37.9781 54.8293 37.531C54.8293 36.8633 54.3078 35.3591 53.5625 33.8768C52.9253 32.6093 51.453 30.2526 51.2985 30.2526C51.2467 30.2526 51.2043 30.6124 51.2043 31.0522ZM69.7774 31.708C69.3 32.2354 69.5947 33.0395 70.2951 33.1203C70.9419 33.195 71.3229 32.8763 71.3229 32.2604C71.3229 31.3383 70.408 31.0113 69.7774 31.708ZM67.4089 34.4666L67.0636 34.8744L67.4714 34.5291C67.6958 34.3392 67.8792 34.1558 67.8792 34.1213C67.8792 33.9763 67.7333 34.0834 67.4089 34.4666ZM2.51506 41.7588C2.17577 42.6433 3.5094 45.0093 5.49316 47.0424C7.37489 48.9707 10.591 50.2835 10.7479 49.1873C10.8221 48.6702 9.59972 46.8515 8.1336 45.2973C5.748 42.7683 2.83225 40.9321 2.51506 41.7588ZM37.2958 50.5805C35.5674 51.4188 34.4986 53.0288 33.3437 56.5336C32.4247 59.3225 32.0097 60.217 30.9999 61.5852C30.5312 62.2203 30.0294 63.076 29.8844 63.4869C29.4751 64.6467 28.6066 66.0938 27.3514 67.7062C26.1447 69.2566 25.4043 69.9279 23.9552 70.786C23.0933 71.2964 23.0484 71.369 21.3979 74.9304C20.4741 76.9241 19.369 79.1671 18.9424 79.9147C16.6053 84.0101 13.1817 88.1663 9.45671 91.4297C7.97754 92.7256 7.3526 93.6735 6.96654 95.2072C6.78728 95.919 6.80015 96.1124 7.05299 96.4983C7.21666 96.7479 7.515 96.9521 7.716 96.9521C8.9813 96.9521 12.0098 94.1192 13.9896 91.084C17.9772 84.9701 17.9609 84.9913 18.4345 85.2841C18.8488 85.54 18.194 87.4281 15.8958 92.6045C14.451 95.8587 14.2373 97.3775 15.155 97.8687C15.9742 98.3072 16.7855 96.9578 18.2119 92.7834C19.9978 87.5573 23.1767 82.8492 25.2725 82.3268C25.529 82.2628 26.5545 81.7825 27.5513 81.2594C28.5482 80.7363 30.2052 79.9996 31.2334 79.6222C32.6789 79.0919 33.081 78.8726 33.0069 78.6552C32.9544 78.5006 32.6903 77.7624 32.4204 77.0148C31.7699 75.2124 31.6082 71.6891 32.0715 69.4034C33 64.8202 35.9118 60.7024 38.224 60.7024C40.202 60.7024 41.6231 63.1728 41.6128 66.593C41.6072 68.4642 41.2996 69.6836 40.4015 71.3961C39.6064 72.9122 37.7982 75.3484 36.2487 76.9908C35.5779 77.7019 35.075 78.2835 35.1306 78.2835C35.5315 78.2835 38.03 76.7298 39.2727 75.7078C41.4629 73.9063 42.8669 70.21 42.8669 66.2453C42.8669 64.8878 42.7451 64.1267 42.224 62.2285C41.0078 57.7991 41.0569 57.369 43.0566 54.9477C43.1594 54.8232 43.4648 54.7145 43.7349 54.7063L44.2262 54.6916L43.6372 54.4341C42.515 53.9432 43.0753 53.3774 44.2436 53.8214C44.714 54.0003 44.7036 53.971 44.0288 53.2099C43.639 52.7702 43.0421 52.0642 42.7026 51.641C42.363 51.218 41.7513 50.7203 41.3433 50.5349C40.3011 50.0616 38.3195 50.0839 37.2958 50.5805ZM40.432 52.4244C39.7787 52.902 40.1907 54.1774 40.9984 54.1774C41.3215 54.1774 41.9606 53.5153 41.9606 53.1805C41.9606 52.8458 41.3215 52.1837 40.9984 52.1837C40.8679 52.1837 40.613 52.2921 40.432 52.4244ZM2.79074 55.046C3.34047 56.0733 5.91711 57.9407 7.64151 58.5615C9.09712 59.0854 12.1015 59.1377 12.8437 58.6517C13.1199 58.471 13.3148 58.2263 13.2769 58.108C13.1308 57.6525 11.2949 56.7461 10.0974 56.5382C9.42935 56.422 7.58115 55.9658 5.99015 55.5241C2.68852 54.6075 2.54461 54.5859 2.79074 55.046ZM37.1463 61.7672C35.7019 62.6479 33.9973 65.4141 33.1619 68.2331C32.5061 70.4456 32.3573 73.4739 32.8048 75.4941C33.1434 77.0222 33.5858 78.2835 33.7834 78.2835C33.8497 78.2835 34.4797 77.6923 35.1835 76.9695C38.9506 73.1002 40.6562 70.1541 40.8283 67.2194C41.066 63.1666 39.2531 60.4823 37.1463 61.7672ZM5.97365 63.617C5.78787 63.9175 6.7175 64.7776 7.92262 65.4197C8.79081 65.8826 8.97042 65.9307 8.82325 65.661C8.48649 65.0438 6.60404 63.4211 6.22505 63.4211C6.15327 63.4211 6.04017 63.5094 5.97365 63.617ZM28.0429 64.3727C26.7924 65.371 25.01 67.6431 24.1228 69.3693L23.8138 69.9705L24.2325 69.7478C25.308 69.1758 28.2966 65.4692 28.786 64.1008C28.9379 63.6758 28.8967 63.6908 28.0429 64.3727ZM84.4181 63.9163C83.5402 63.9953 83.4416 64.1753 84.1095 64.4794C84.7004 64.7487 84.6451 64.764 84.9905 64.2367C85.1538 63.9875 85.2651 63.7979 85.2379 63.8153C85.2108 63.8327 84.8417 63.8782 84.4181 63.9163ZM85.8469 64.3384C85.6109 64.6413 85.4518 64.9231 85.4935 64.9646C85.535 65.0061 86.0135 65.2367 86.5569 65.4768C87.2108 65.7659 88.2186 65.9874 89.5384 66.1322C93.9507 66.6162 96.1464 67.6674 99.5591 70.9301C102.733 73.964 104.824 77.3276 106.218 81.6381C107.104 84.3787 107.439 84.8819 108.43 84.9544C109.122 85.0051 109.21 84.9602 109.502 84.4106C109.908 83.6427 109.896 81.5367 109.475 79.9089C109.1 78.4566 107.475 75.0031 106.465 73.5098C105.294 71.7798 103.901 70.2685 102.457 69.1629C98.1166 65.8388 93.9393 64.3522 87.6353 63.888C86.2875 63.7887 86.2723 63.7925 85.8469 64.3384ZM82.5603 64.8626C82.5603 65.2189 82.9892 65.9586 83.1958 65.9586C83.3138 65.9586 83.5572 65.7962 83.7368 65.5979C84.0555 65.2459 84.0475 65.2307 83.4082 64.9635C82.6395 64.6424 82.5603 64.6329 82.5603 64.8626ZM90.0998 67.0745C90.1518 67.1586 90.3178 67.2273 90.469 67.2273C90.8795 67.2273 93.161 68.7505 94.704 70.0546C97.9505 72.7987 99.6507 75.5907 101.591 81.3647C103.041 85.6808 103.594 86.621 104.68 86.621C105.996 86.621 106.35 84.4844 105.479 81.7957C104.839 79.8194 103.211 76.4828 102.185 75.044C101.13 73.5631 98.7923 71.1077 97.335 69.949C96.0509 68.9278 94.2514 67.9253 92.9822 67.5242C91.8396 67.1632 89.9747 66.8723 90.0998 67.0745ZM96.6929 73.5866C97.7408 75.5624 97.9585 76.4253 98.1414 79.3313C98.2592 81.2014 98.3959 82.1068 98.6339 82.5938C99.0917 83.5303 99.6253 83.5722 100.416 82.7333L101.032 82.0803L100.39 80.2272C99.5129 77.6961 98.4943 75.566 97.5239 74.2337C96.123 72.3103 95.9403 72.168 96.6929 73.5866ZM18.7512 76.3351C14.7662 80.6243 10.8509 84.4046 8.24833 86.4761C5.36865 88.7682 4.50971 89.7004 4.06384 91.0175C3.50033 92.6823 4.04172 93.3237 5.65647 92.9039C6.71406 92.6292 7.48273 92.119 9.54371 90.3233C12.0495 88.1402 14.89 84.8331 16.9635 81.6846C18.202 79.804 21.1348 74.1148 20.8656 74.1148C20.8373 74.1148 19.8858 75.1138 18.7512 76.3351ZM22.0566 86.3944C21.1697 87.6434 19.7979 90.5689 18.9331 93.0553C18.4129 94.5506 17.7579 96.232 17.4775 96.7921C16.9591 97.8267 16.0502 98.7646 15.5661 98.7646C15.0606 98.7646 14.2997 98.247 14.0537 97.736L13.8074 97.224L13.5542 98.3115C13.2421 99.6524 13.374 100.448 13.9888 100.932C15.1403 101.838 16.4411 100.98 17.6653 98.5087C18.0769 97.6779 19.0624 95.0207 19.855 92.604C20.6477 90.1874 21.5728 87.6894 21.9107 87.053C22.5728 85.8061 22.6176 85.6041 22.0566 86.3944Z" stroke="white" stroke-width="0.388531" mask="url(#path-1-outside-1_126_10)"/>
</svg>
